<svg xmlns="http://www.w3.org/2000/svg" width="172" height="42" viewBox="0 0 172 42" fill="none"><path d="M32.0721 1.24811e-10C34.5754 1.09264e-07 35.827 1.47601e-07 36.8385 0.333295C38.8291 0.989202 40.3906 2.5467 41.0483 4.53216C41.3824 5.54105 41.3824 6.78946 41.3824 9.28628C41.3824 11.7831 41.3824 13.0315 41.0483 14.0404C40.3906 16.0259 38.8291 17.5834 36.8385 18.2393C35.827 18.5726 34.5754 18.5726 32.0721 18.5726C29.5688 18.5726 28.3171 18.5726 27.3056 18.2393C25.315 17.5834 23.7535 16.0259 23.0959 14.0404C22.7617 13.0315 22.7617 11.7831 22.7617 9.28628C22.7617 6.78946 22.7617 5.54105 23.0959 4.53216C23.7535 2.5467 25.315 0.989202 27.3056 0.333294C28.3171 -1.72202e-07 29.5688 -1.09015e-07 32.0721 1.24811e-10Z" fill="url(#paint0_linear_8315_3667)"></path><path d="M19.4483 6.19086C19.4483 2.77174 16.6694 1.49658e-07 13.2414 2.04014e-10C6.99933 -2.71939e-07 3.87831 -5.90406e-07 1.93916 1.93414C5.91936e-07 3.86829 2.72849e-07 6.98124 0 13.2072C-1.49842e-07 16.6263 2.77892 19.398 6.2069 19.398H8.68966C14.9317 19.398 18.0527 19.398 19.9919 21.3322C21.931 23.2663 21.931 26.3793 21.931 32.6052V35.0815C21.931 38.5006 24.71 41.2724 28.1379 41.2724C34.38 41.2724 37.501 41.2724 39.4402 39.3382C41.3793 37.4041 41.3793 34.2911 41.3793 28.0652C41.3793 24.6461 38.6004 21.8744 35.1724 21.8744H32.6897C26.4476 21.8744 23.3266 21.8744 21.3874 19.9402C19.4483 18.0061 19.4483 14.8931 19.4483 8.6672V6.19086Z" fill="#F6FAFC"></path><path d="M63.809 28.3833C61.953 28.3833 60.353 28.0526 59.009 27.3912C57.6863 26.7086 56.6623 25.7592 55.937 24.5432C55.233 23.3059 54.881 21.8552 54.881 20.1912C54.881 18.5699 55.2223 17.1512 55.905 15.9352C56.5876 14.6979 57.537 13.7379 58.753 13.0552C59.9903 12.3512 61.3876 11.9992 62.945 11.9992C64.0756 11.9992 65.0996 12.1912 66.017 12.5752C66.9343 12.9379 67.7236 13.4712 68.385 14.1752C69.0463 14.8579 69.5476 15.7006 69.889 16.7032C70.2303 17.6846 70.401 18.7832 70.401 19.9992C70.401 20.4046 70.273 20.7139 70.017 20.9272C69.761 21.1192 69.3876 21.2152 68.897 21.2152H58.849V18.7192H66.913L66.401 19.1672C66.401 18.2926 66.273 17.5672 66.017 16.9912C65.761 16.3939 65.3876 15.9459 64.897 15.6472C64.4276 15.3486 63.841 15.1992 63.137 15.1992C62.3476 15.1992 61.6756 15.3806 61.121 15.7432C60.5663 16.1059 60.1396 16.6286 59.841 17.3112C59.5423 17.9939 59.393 18.8152 59.393 19.7752V20.0312C59.393 21.6526 59.7663 22.8472 60.513 23.6152C61.281 24.3832 62.4116 24.7672 63.905 24.7672C64.417 24.7672 65.0036 24.7032 65.665 24.5752C66.3263 24.4472 66.945 24.2446 67.521 23.9672C68.0116 23.7326 68.449 23.6579 68.833 23.7432C69.217 23.8072 69.5156 23.9779 69.729 24.2552C69.9423 24.5326 70.0596 24.8526 70.081 25.2152C70.1236 25.5779 70.049 25.9406 69.857 26.3032C69.665 26.6446 69.345 26.9326 68.897 27.1672C68.1716 27.5726 67.3503 27.8712 66.433 28.0633C65.537 28.2766 64.6623 28.3833 63.809 28.3833ZM79.3942 28.3193C78.7542 28.3193 78.2102 28.1699 77.7622 27.8712C77.3142 27.5512 76.9516 27.0499 76.6742 26.3672L72.1622 15.1992C71.9276 14.6019 71.8529 14.0792 71.9382 13.6312C72.0236 13.1619 72.2476 12.7886 72.6102 12.5112C72.9942 12.2126 73.5169 12.0632 74.1782 12.0632C74.7329 12.0632 75.1916 12.2019 75.5542 12.4792C75.9169 12.7352 76.2262 13.2366 76.4822 13.9832L80.0022 23.3592H79.2662L82.9142 13.5672C83.0849 13.0552 83.3302 12.6819 83.6502 12.4472C83.9916 12.1912 84.4289 12.0632 84.9622 12.0632C85.4956 12.0632 85.9222 12.1912 86.2422 12.4472C86.5836 12.7032 86.8502 13.0766 87.0422 13.5672L90.6262 23.3592H90.0182L93.5062 13.8552C93.7622 13.1726 94.0929 12.7032 94.4982 12.4472C94.9036 12.1912 95.3409 12.0632 95.8102 12.0632C96.4076 12.0632 96.8662 12.2126 97.1862 12.5112C97.5276 12.8099 97.7196 13.1939 97.7622 13.6632C97.8262 14.1326 97.7409 14.6446 97.5062 15.1992L93.0262 26.3672C92.7702 27.0286 92.4076 27.5192 91.9382 27.8392C91.4902 28.1593 90.9462 28.3193 90.3062 28.3193C89.6876 28.3193 89.1436 28.1593 88.6742 27.8392C88.2262 27.5192 87.8636 27.0286 87.5862 26.3672L83.7462 16.3832H85.8262L82.0822 26.3352C81.8262 26.9966 81.4742 27.4979 81.0262 27.8392C80.5782 28.1593 80.0342 28.3193 79.3942 28.3193ZM108.278 28.3833C106.422 28.3833 104.822 28.0526 103.478 27.3912C102.155 26.7086 101.131 25.7592 100.406 24.5432C99.7017 23.3059 99.3497 21.8552 99.3497 20.1912C99.3497 18.5699 99.6911 17.1512 100.374 15.9352C101.056 14.6979 102.006 13.7379 103.222 13.0552C104.459 12.3512 105.856 11.9992 107.414 11.9992C108.544 11.9992 109.568 12.1912 110.486 12.5752C111.403 12.9379 112.192 13.4712 112.854 14.1752C113.515 14.8579 114.016 15.7006 114.358 16.7032C114.699 17.6846 114.87 18.7832 114.87 19.9992C114.87 20.4046 114.742 20.7139 114.486 20.9272C114.23 21.1192 113.856 21.2152 113.366 21.2152H103.318V18.7192H111.382L110.87 19.1672C110.87 18.2926 110.742 17.5672 110.486 16.9912C110.23 16.3939 109.856 15.9459 109.366 15.6472C108.896 15.3486 108.31 15.1992 107.606 15.1992C106.816 15.1992 106.144 15.3806 105.59 15.7432C105.035 16.1059 104.608 16.6286 104.31 17.3112C104.011 17.9939 103.862 18.8152 103.862 19.7752V20.0312C103.862 21.6526 104.235 22.8472 104.982 23.6152C105.75 24.3832 106.88 24.7672 108.374 24.7672C108.886 24.7672 109.472 24.7032 110.134 24.5752C110.795 24.4472 111.414 24.2446 111.99 23.9672C112.48 23.7326 112.918 23.6579 113.302 23.7432C113.686 23.8072 113.984 23.9779 114.198 24.2552C114.411 24.5326 114.528 24.8526 114.55 25.2152C114.592 25.5779 114.518 25.9406 114.326 26.3032C114.134 26.6446 113.814 26.9326 113.366 27.1672C112.64 27.5726 111.819 27.8712 110.902 28.0633C110.006 28.2766 109.131 28.3833 108.278 28.3833ZM127.376 28.3833C126.118 28.3833 124.998 28.0739 124.016 27.4552C123.056 26.8152 122.416 25.9726 122.096 24.9272L122.448 23.8712V25.8552C122.448 26.6446 122.246 27.2526 121.84 27.6792C121.435 28.1059 120.848 28.3193 120.08 28.3193C119.312 28.3193 118.715 28.1059 118.288 27.6792C117.883 27.2526 117.68 26.6446 117.68 25.8552V7.64725C117.68 6.83658 117.883 6.22858 118.288 5.82325C118.715 5.39658 119.323 5.18325 120.112 5.18325C120.88 5.18325 121.467 5.39658 121.872 5.82325C122.299 6.22858 122.512 6.83658 122.512 7.64725V15.2312H122.128C122.47 14.2712 123.12 13.4926 124.08 12.8952C125.04 12.2979 126.139 11.9992 127.376 11.9992C128.763 11.9992 129.968 12.3299 130.992 12.9912C132.016 13.6526 132.816 14.5912 133.392 15.8072C133.968 17.0232 134.256 18.4739 134.256 20.1592C134.256 21.8446 133.968 23.3059 133.392 24.5432C132.816 25.7806 132.006 26.7299 130.96 27.3912C129.936 28.0526 128.742 28.3833 127.376 28.3833ZM125.936 24.7672C126.619 24.7672 127.216 24.5966 127.728 24.2552C128.262 23.9139 128.667 23.4126 128.944 22.7512C129.243 22.0686 129.392 21.2046 129.392 20.1592C129.392 18.6019 129.072 17.4606 128.432 16.7352C127.792 15.9886 126.96 15.6152 125.936 15.6152C125.254 15.6152 124.646 15.7752 124.112 16.0952C123.6 16.4152 123.195 16.9166 122.896 17.5992C122.598 18.2606 122.448 19.1139 122.448 20.1592C122.448 21.7166 122.768 22.8792 123.408 23.6472C124.048 24.3939 124.891 24.7672 125.936 24.7672ZM144.763 28.3833C143.078 28.3833 141.606 28.0526 140.347 27.3912C139.11 26.7299 138.15 25.7806 137.467 24.5432C136.785 23.3059 136.443 21.8446 136.443 20.1592C136.443 18.9006 136.635 17.7699 137.019 16.7672C137.403 15.7646 137.958 14.9112 138.683 14.2072C139.43 13.4819 140.315 12.9379 141.339 12.5752C142.363 12.1912 143.505 11.9992 144.763 11.9992C146.449 11.9992 147.91 12.3299 149.147 12.9912C150.406 13.6526 151.377 14.5912 152.059 15.8072C152.763 17.0232 153.115 18.4739 153.115 20.1592C153.115 21.4392 152.913 22.5806 152.507 23.5832C152.123 24.5859 151.569 25.4499 150.843 26.1752C150.118 26.9006 149.233 27.4552 148.187 27.8392C147.163 28.2019 146.022 28.3833 144.763 28.3833ZM144.763 24.7672C145.467 24.7672 146.075 24.5966 146.587 24.2552C147.099 23.9139 147.505 23.4126 147.803 22.7512C148.102 22.0686 148.251 21.2046 148.251 20.1592C148.251 18.6019 147.931 17.4606 147.291 16.7352C146.651 15.9886 145.809 15.6152 144.763 15.6152C144.081 15.6152 143.473 15.7752 142.939 16.0952C142.427 16.4152 142.022 16.9166 141.723 17.5992C141.446 18.2606 141.307 19.1139 141.307 20.1592C141.307 21.7166 141.627 22.8792 142.267 23.6472C142.907 24.3939 143.739 24.7672 144.763 24.7672ZM163.611 28.3833C162.139 28.3833 160.902 28.1379 159.899 27.6472C158.918 27.1566 158.182 26.4419 157.691 25.5032C157.222 24.5646 156.987 23.3806 156.987 21.9512V15.9352H155.643C155.046 15.9352 154.576 15.7752 154.235 15.4552C153.915 15.1352 153.755 14.6979 153.755 14.1432C153.755 13.5459 153.915 13.0979 154.235 12.7992C154.576 12.4792 155.046 12.3192 155.643 12.3192H156.987V9.88725C156.987 9.07658 157.2 8.46858 157.627 8.06325C158.054 7.63658 158.651 7.42325 159.419 7.42325C160.208 7.42325 160.806 7.63658 161.211 8.06325C161.616 8.46858 161.819 9.07658 161.819 9.88725V12.3192H164.859C165.456 12.3192 165.915 12.4792 166.235 12.7992C166.555 13.0979 166.715 13.5459 166.715 14.1432C166.715 14.6979 166.555 15.1352 166.235 15.4552C165.915 15.7752 165.456 15.9352 164.859 15.9352H161.819V21.7592C161.819 22.6552 162.022 23.3272 162.427 23.7752C162.854 24.2232 163.526 24.4472 164.443 24.4472C164.763 24.4472 165.062 24.4152 165.339 24.3512C165.616 24.2872 165.872 24.2446 166.107 24.2232C166.406 24.2019 166.651 24.2979 166.843 24.5112C167.035 24.7032 167.131 25.1406 167.131 25.8232C167.131 26.3352 167.046 26.7832 166.875 27.1672C166.704 27.5512 166.406 27.8286 165.979 27.9992C165.702 28.1059 165.318 28.1913 164.827 28.2553C164.358 28.3406 163.952 28.3833 163.611 28.3833Z" fill="white"></path><defs><linearGradient id="paint0_linear_8315_3667" x1="27.5203" y1="13.8262" x2="47.1247" y2="-5.82886" gradientUnits="userSpaceOnUse"><stop stop-color="#D796FF"></stop><stop offset="1" stop-color="#2683F4"></stop></linearGradient></defs></svg>